<svg xmlns="http://www.w3.org/2000/svg" width="256" height="256" fill="currentColor" viewBox="0 0 256 256"><path d="M246.83,82.83l-33.66,33.66a4,4,0,0,1-5.66-5.66l33.66-33.66a4,4,0,0,1,5.66,5.66ZM192,76a4,4,0,0,0,4-4V32a4,4,0,0,0-8,0V72A4,4,0,0,0,192,76Zm29.66,41.51a4,4,0,0,0-5.66,0l-33.66,33.66a4,4,0,0,0,5.66,5.66l33.66-33.66A4,4,0,0,0,221.66,117.51ZM72,196a4,4,0,0,0-4,4v40a4,4,0,0,0,8,0V200A4,4,0,0,0,72,196Zm-29.66-38.83a4,4,0,0,0-5.66,5.66L70.34,196.5a4,4,0,0,0,5.66-5.66ZM32,76a4,4,0,0,0,4-4V32a4,4,0,0,0-8,0V72A4,4,0,0,0,32,76ZM71.17,14.83,37.51,48.49a4,4,0,0,0,5.66,5.66L76.83,20.49a4,4,0,0,0-5.66-5.66ZM227.31,176.4,79.6,28.69a16,16,0,0,0-22.63,0L28.69,57a16,16,0,0,0,0,22.63L176.4,227.31a16,16,0,0,0,22.63,0l28.28-28.28A16,16,0,0,0,227.31,176.4Zm-5.65,17L193.37,221.6a8,8,0,0,1-11.31,0L34.37,73.91a8,8,0,0,1,0-11.31L62.66,34.31a8,8,0,0,1,11.31,0L221.66,182.06A8,8,0,0,1,221.66,193.37Z"/></svg>
